# xmcd CD database file
#
# Track frame offsets:
#	150
#	8760
#	14905
#	20750
#	31087
#	48512
#	53765
#	58400
#	65422
#	83337
#	100387
#	118675
#	135937
#	151770
#
# Disc length: 2380 seconds
#
# Revision: 1
# Processed by: cddbd v1.5.2PL0 Copyright (c) Steve Scherf et al.
# Submitted via: CDex 1.70beta2
#
DISCID=af094a0e
DTITLE=アイドル天使ようこそようこ - アイドル天使ようこそようこ LD-BOX disc3 ヴォーカル編
DYEAR=1993
DGENRE=seiyu
TTITLE0=陽春のパッセージ
TTITLE1=アイスクリーム
TTITLE2=マジョになりましょ
TTITLE3=すてきなカンちがい
TTITLE4=一人にさせない
TTITLE5=すてきなファニチャー
TTITLE6=恋文ブギ
TTITLE7=サンシャイン
TTITLE8=君はオリジナル
TTITLE9=アレンジ・コレクション1
TTITLE10=アレンジ・コレクション2
TTITLE11=アレンジ・コレクション3
TTITLE12=ブリッジ・コレクション1
TTITLE13=ブリッジ・コレクション2
EXTD=YEAR: 1993
EXTT0=
EXTT1=
EXTT2=
EXTT3=
EXTT4=
EXTT5=
EXTT6=
EXTT7=
EXTT8=
EXTT9=
EXTT10=
EXTT11=
EXTT12=
EXTT13=
PLAYORDER=
